HIERARCHY
ROOT Hips
{
  OFFSET 3.56379 102.185 95.2879
  CHANNELS 6 Xposition Yposition Zposition Zrotation Xrotation Yrotation
  JOINT RightUpLeg
  {
    OFFSET -8.9458 -8.66707 0.101652
    CHANNELS 3 Zrotation Xrotation Yrotation
    JOINT RightLeg
    {
      OFFSET 0 -44.4227 1.3727
      CHANNELS 3 Zrotation Xrotation Yrotation
      JOINT RightFoot
      {
        OFFSET 0.253549 -42.0924 -1.46059
        CHANNELS 3 Zrotation Xrotation Yrotation
        JOINT RightToes
        {
          OFFSET 0.04 -4.41509 8.4991
          CHANNELS 3 Zrotation Xrotation Yrotation
          End Site
          {
            OFFSET -0.08 -0.137448 9.77979
          }
        }
      }
    }
  }
  JOINT Spine
  {
    OFFSET 0 11.8905 0
    CHANNELS 3 Zrotation Xrotation Yrotation
    JOINT Spine1
    {
      OFFSET 0 25.6574 0.127663
      CHANNELS 3 Zrotation Xrotation Yrotation
      JOINT HEad
      {
        OFFSET 0 8.73416 0.011341
        CHANNELS 3 Zrotation Xrotation Yrotation
        End Site
        {
          OFFSET -0.29 12.7742 2.51395
        }
      }
      JOINT LeftShoulder1
      {
        OFFSET 8.99 -0.362252 -0.22
        CHANNELS 3 Zrotation Xrotation Yrotation
        JOINT LeftArm
        {
          OFFSET 10.2827 -0.00338 0.322123
          CHANNELS 3 Zrotation Xrotation Yrotation
          JOINT LeftForeArm
          {
            OFFSET 32.7669 0.099144 -1.42434
            CHANNELS 3 Zrotation Xrotation Yrotation
            JOINT LeftHand
            {
              OFFSET 27.5643 0.085362 1.02216
              CHANNELS 3 Zrotation Xrotation Yrotation
              End Site
              {
                OFFSET 16.7443 -0.6 1.50291
              }
            }
          }
        }
      }
      JOINT RightShoulder
      {
        OFFSET -8.99 -0.362252 -0.22
        CHANNELS 3 Zrotation Xrotation Yrotation
        JOINT RightArm
        {
          OFFSET -10.2827 -0.00338 0.322123
          CHANNELS 3 Zrotation Xrotation Yrotation
          JOINT RightForeArm
          {
            OFFSET -32.8971 0.099144 -1.42434
            CHANNELS 3 Zrotation Xrotation Yrotation
            JOINT RightHand
            {
              OFFSET -27.4921 0.085362 1.02216
              CHANNELS 3 Zrotation Xrotation Yrotation
              End Site
              {
                OFFSET -16.6312 -0.6 1.50291
              }
            }
          }
        }
      }
    }
  }
  JOINT LeftUpLeg
  {
    OFFSET 8.9458 -8.66707 0.101652
    CHANNELS 3 Zrotation Xrotation Yrotation
    JOINT LeftLeg
    {
      OFFSET 0 -44.4227 1.3727
      CHANNELS 3 Zrotation Xrotation Yrotation
      JOINT LeftFoot
      {
        OFFSET -0.253549 -42.0924 -1.46059
        CHANNELS 3 Zrotation Xrotation Yrotation
        JOINT LeftToes
        {
          OFFSET -0.04 -4.41509 8.4991
          CHANNELS 3 Zrotation Xrotation Yrotation
          End Site
          {
            OFFSET 0.08 -0.047448 9.77979
          }
        }
      }
    }
  }
}
MOTION
Frames:	12
Frame Time:	0.0166667
-6.33189 102.342 227.268 -2.99404 -0.0116294 173.551 -1.69382 3.82055 0.0594539 2.17546 36.923 -6.20359 5.84963 -0.0556503 -0.322435 0.0462048 0.000533964 0.662642 -1.54705 3.79382 -1.3567 -7.13462 0.0683757 -0.250795 5.92805 0.440764 8.7299 3.97569e-016 0 -1.59028e-015 -66.0679 -49.8247 9.93724 -20.1002 11.0669 4.90975 0.368473 9.90896 -0.00117926 -5.32074 0.509193 9.88158 91.1917 -19.8689 22.0221 20.1296 16.8302 26.9476 -0.369625 9.91382 0.00119887 -3.91703 -21.9533 0.978907 -2.47215 19.1098 20.6481 0.280334 6.21313 0.0750572 -1.36016e-011 -4.50382e-011 7.89875e-011 
-6.42976 102.3 225.327 -3.52118 0.2141 173.309 -2.95094 1.58515 -0.941215 2.00622 41.4695 -6.92729 6.3689 5.03832 -0.617169 -3.0572 2.28008 5.93442 -1.93178 3.86198 -1.38499 -7.58184 -0.0403274 -0.257747 5.54418 0.261486 9.07855 -1.19271e-015 0 -0 -65.5066 -50.3247 10.5513 -20.2291 11.2371 3.8835 0.368473 9.90896 -0.00117926 -6.21564 0.422607 10.6301 92.3598 -20.7072 21.1388 19.8244 16.5686 25.6711 -0.369625 9.91382 0.00119887 -4.52554 -21.2983 1.50281 -2.70252 20.6304 20.1723 0.199514 4.66802 0.0888122 -0.436994 -0.24874 0.91176 
-6.53285 102.226 223.43 -4.05834 0.411086 173.021 -4.14369 -0.859682 -1.94721 1.57572 46.0942 -7.29532 6.91996 10.0914 -0.935372 -5.65307 5.31701 8.88149 -2.37001 3.9332 -1.39255 -7.98599 -0.115749 -0.259955 5.14358 -0.00474834 9.50123 -9.93923e-017 -7.95139e-016 -3.18055e-015 -65.1761 -50.7566 10.93 -20.3362 11.4155 2.82322 0.368473 9.90896 -0.00117926 -7.0912 0.332349 11.2487 93.4832 -21.4662 20.3449 19.5215 16.2907 24.3129 -0.369625 9.91382 0.00119887 -5.12106 -20.6959 2.28382 -2.84219 22.1612 19.5781 0.102135 3.09112 0.101987 -0.795007 -0.631145 1.56781 
-6.65853 102.034 221.662 -4.66233 0.52576 172.552 -5.06993 -3.97462 -3.14875 -0.470549 51.1517 -5.83458 7.52751 15.4979 -1.35155 -5.62461 11.7166 5.30083 -3.00499 4.03174 -1.33099 -8.2668 -0.116187 -0.248849 4.70693 -0.547316 10.2075 -7.95139e-016 1.59028e-015 -1.59028e-015 -65.4811 -51.0687 10.7387 -20.3956 11.6304 1.61792 0.368473 9.90896 -0.00117926 -8.04567 0.214101 11.5613 94.6562 -21.9927 19.8097 19.2274 15.9899 22.747 -0.369625 9.91382 0.00119887 -5.67957 -20.316 3.99355 -2.71732 23.8505 18.5266 -0.0424046 1.34773 0.11449 -0.915937 -1.42 1.39846 
-6.77558 101.857 219.941 -5.21116 0.604767 172.118 -5.84865 -7.20603 -4.03284 -3.03271 55.9498 -4.01999 8.06531 19.9116 -1.73313 -2.22987 17.1289 -1.89109 -3.62181 4.09715 -1.26253 -8.49276 -0.0336186 -0.231151 4.24196 -1.14263 10.8667 7.95139e-016 7.95139e-016 -1.59028e-015 -66.2492 -51.1644 9.94375 -20.416 11.8389 0.467863 0.368473 9.90896 -0.00117926 -8.71946 0.124251 11.5775 95.5598 -22.4102 19.4113 18.9787 15.6688 21.012 -0.369625 9.91382 0.00119887 -6.19894 -19.8347 5.65315 -2.52035 25.2656 17.5062 -0.211694 -0.28519 0.124418 -1.02319 -2.33305 1.09007 
-6.85215 101.83 218.204 -5.59952 0.693979 171.928 -6.33515 -10.0927 -3.98625 -4.22707 59.8739 -3.77004 8.49149 22.2337 -1.96633 4.16495 15.9829 -11.9747 -4.01979 4.05229 -1.24972 -8.7561 0.192468 -0.20924 3.70231 -1.598 11.1439 0 0 -1.59028e-015 -67.3815 -50.8909 8.39272 -20.4098 12.0134 -0.476209 0.368473 9.90896 -0.00117926 -8.65815 0.128758 11.163 95.8361 -22.7787 19.1187 18.8193 15.3217 19.0496 -0.369625 9.91382 0.00119887 -6.67732 -18.9254 6.40473 -2.4965 25.8718 16.9207 -0.339759 -1.50885 0.129251 -1.34112 -3.12591 1.38964 
-6.90757 101.865 216.481 -5.83612 0.742628 171.869 -6.55631 -12.8637 -3.41774 -4.16248 63.1542 -5.0166 8.29678 22.1268 -1.93528 9.30065 13.5009 -20.9879 -4.29778 3.97157 -1.24341 -8.90562 0.446305 -0.187573 3.16151 -2.02312 11.2558 -9.93923e-017 -7.95139e-016 1.59028e-015 -68.9017 -50.292 6.22885 -20.3607 12.1473 -1.17239 0.368473 9.90896 -0.00117926 -8.24249 0.17478 10.5728 95.6653 -23.1391 18.8226 18.733 14.9668 17.0256 -0.369625 9.91382 0.00119887 -7.06344 -17.8655 6.5728 -2.58447 26.093 16.7595 -0.589435 -2.5234 0.130466 -1.60229 -3.95549 1.54709 
-6.9539 101.931 214.788 -5.86954 0.662313 171.883 -6.57989 -15.6791 -2.40204 -1.93919 65.8633 -9.14521 6.61032 17.897 -1.37357 10.8611 15.1768 -24.1315 -4.44475 3.90987 -1.21869 -8.7803 0.555387 -0.177217 2.67014 -2.48576 11.3395 1.09332e-015 -7.95139e-016 1.59028e-015 -70.7582 -49.3471 3.57806 -20.2653 12.2134 -1.46926 0.368473 9.90896 -0.00117926 -7.69799 0.234404 10.0999 95.036 -23.5535 18.3833 18.7555 14.6337 15.0683 -0.369625 9.91382 0.00119887 -7.24762 -16.8459 6.0425 -2.81283 26.1315 17.3846 -1.26811 -3.35867 0.129141 -1.52552 -5.077 0.60416 
-6.98119 102 213.098 -5.7725 0.611411 172.022 -6.36059 -18.255 -1.3233 1.44766 67.5474 -14.0064 4.83918 12.5029 -0.776009 11.6773 15.919 -25.501 -4.58975 3.84874 -1.16529 -8.50094 0.75043 -0.160699 2.27263 -2.91483 11.3007 -4.96962e-016 -7.95139e-016 -1.59028e-015 -72.9168 -48.0642 0.463626 -20.1004 12.246 -1.54401 0.368473 9.90896 -0.00117926 -7.03579 0.298808 9.49574 94.1431 -24.0187 17.8548 18.8126 14.3188 13.2227 -0.369625 9.91382 0.00119887 -7.32791 -15.7543 5.29024 -3.04725 26.1296 18.0636 -1.87534 -4.2268 0.124009 -1.51442 -5.95286 -0.0761985 
-6.98155 102.037 211.387 -5.58182 0.750549 172.354 -5.99413 -20.3143 -0.72784 3.63503 67.9953 -16.1384 4.05428 8.71506 -0.534918 13.3208 11.2224 -27.9052 -4.87426 3.78921 -1.05278 -8.11483 1.27993 -0.11708 2.03297 -3.2585 11.0564 -4.96962e-016 0 -0 -75.4144 -46.4295 -3.16802 -19.8091 12.269 -1.5153 0.368473 9.90896 -0.00117926 -6.32732 0.349136 8.52338 93.1744 -24.5447 17.2652 18.838 14.025 11.5381 -0.369625 9.91382 0.00119887 -7.41658 -14.5254 4.7905 -3.15388 26.3375 17.9909 -1.81265 -5.44423 0.114579 -1.95139 -5.84769 1.21406 
-6.96089 102.029 209.666 -5.35983 0.985326 172.775 -5.55565 -22.0095 -0.317348 4.83552 67.5235 -16.4915 3.70278 5.4304 -0.411658 14.5059 4.87313 -30.035 -5.24966 3.72774 -0.916767 -7.68388 1.91805 -0.0678296 1.93923 -3.52729 10.7082 2.08724e-015 7.95139e-016 -0 -77.9195 -44.4797 -6.92781 -19.4793 12.2813 -1.40922 0.368473 9.90896 -0.00117926 -5.61785 0.387212 7.44085 92.1349 -25.154 16.552 18.8566 13.7753 10.1273 -0.369625 9.91382 0.00119887 -7.49845 -13.2353 4.39303 -3.15061 26.6644 17.7509 -1.68204 -6.72785 0.099662 -2.36373 -5.61284 2.50273 
-6.92765 101.925 207.937 -5.19929 1.30522 173.179 -5.09732 -23.3924 -0.00760201 5.07094 66.3153 -15.2287 3.70524 2.44788 -0.318597 15.3487 -1.42772 -31.4147 -5.76071 3.66096 -0.76841 -7.2713 2.55891 -0.0257654 2.01101 -3.74916 10.3498 1.98785e-015 0 -7.95139e-016 -80.3011 -42.289 -10.5825 -19.1739 12.2853 -1.2623 0.368473 9.90896 -0.00117926 -5.04438 0.404928 6.47352 91.1327 -25.8982 15.6395 18.8655 13.61 9.19999 -0.369625 9.91382 0.00119887 -7.6355 -11.9342 4.09896 -2.97666 27.1554 17.7679 -2.01475 -7.88199 0.0767452 -2.26762 -6.0546 1.94282 
